<svg width="29" height="29" viewBox="0 0 29 29" fill="none" xmlns="http://www.w3.org/2000/svg">
<path d="M14.0978 0.270264C10.2959 0.270264 9.81876 0.286888 8.32554 0.35484C6.83524 0.423084 5.81798 0.659022 4.92788 1.0052C4.00716 1.36275 3.22613 1.84105 2.44802 2.61944C1.66933 3.39754 1.19103 4.17856 0.832309 5.09898C0.485252 5.98936 0.24902 7.0069 0.181941 8.49661C0.115155 9.98981 0.0976562 10.4672 0.0976562 14.2691C0.0976562 18.0709 0.114572 18.5466 0.182234 20.0398C0.25077 21.5301 0.486711 22.5473 0.832602 23.4374C1.19045 24.3581 1.66875 25.1391 2.44715 25.9172C3.22496 26.6959 4.00599 27.1754 4.92613 27.5329C5.81681 27.8791 6.83436 28.1151 8.32438 28.1833C9.8176 28.2513 10.2944 28.2679 14.096 28.2679C17.8982 28.2679 18.3739 28.2513 19.8671 28.1833C21.3574 28.1151 22.3758 27.8791 23.2665 27.5329C24.1869 27.1754 24.9668 26.6959 25.7446 25.9172C26.5233 25.1391 27.0016 24.3581 27.3603 23.4377C27.7045 22.5473 27.9407 21.5298 28.0107 20.0401C28.0778 18.5469 28.0953 18.0709 28.0953 14.2691C28.0953 10.4672 28.0778 9.9901 28.0107 8.4969C27.9407 7.00661 27.7045 5.98936 27.3603 5.09927C27.0016 4.17856 26.5233 3.39754 25.7446 2.61944C24.9659 1.84076 24.1872 1.36246 23.2656 1.0052C22.3732 0.659022 21.3554 0.423084 19.8651 0.35484C18.3718 0.286888 17.8965 0.270264 14.0934 0.270264H14.0978ZM12.842 2.79297C13.2147 2.79238 13.6306 2.79297 14.0978 2.79297C17.8355 2.79297 18.2785 2.80638 19.7545 2.87346C21.1194 2.93587 21.8602 3.16393 22.3537 3.35554C23.0069 3.60927 23.4727 3.91258 23.9624 4.40254C24.4523 4.8925 24.7556 5.35912 25.01 6.0124C25.2016 6.50527 25.4299 7.24605 25.4921 8.61093C25.5591 10.0866 25.5737 10.5299 25.5737 14.2659C25.5737 18.0018 25.5591 18.4451 25.4921 19.9208C25.4296 21.2857 25.2016 22.0265 25.01 22.5193C24.7562 23.1726 24.4523 23.6378 23.9624 24.1274C23.4724 24.6174 23.0072 24.9207 22.3537 25.1744C21.8608 25.3669 21.1194 25.5944 19.7545 25.6568C18.2788 25.7239 17.8355 25.7385 14.0978 25.7385C10.3598 25.7385 9.91676 25.7239 8.44103 25.6568C7.07614 25.5938 6.33536 25.3658 5.8416 25.1741C5.18832 24.9204 4.72169 24.6171 4.23172 24.1272C3.74176 23.6372 3.43845 23.1717 3.18413 22.5182C2.99252 22.0253 2.76417 21.2845 2.70205 19.9196C2.63497 18.4439 2.62155 18.0006 2.62155 14.2624C2.62155 10.5241 2.63497 10.0831 2.70205 8.60743C2.76446 7.24255 2.99252 6.50178 3.18413 6.00832C3.43787 5.35504 3.74176 4.88841 4.23172 4.39845C4.72169 3.9085 5.18832 3.60519 5.8416 3.35088C6.33507 3.15839 7.07614 2.93091 8.44103 2.86821C9.73244 2.80988 10.2329 2.79238 12.842 2.78947V2.79297ZM21.5703 5.11735C20.6429 5.11735 19.8904 5.86891 19.8904 6.79662C19.8904 7.72405 20.6429 8.47648 21.5703 8.47648C22.4977 8.47648 23.2502 7.72405 23.2502 6.79662C23.2502 5.8692 22.4977 5.11677 21.5703 5.11677V5.11735ZM14.0978 7.0801C10.1276 7.0801 6.90873 10.299 6.90873 14.2691C6.90873 18.2392 10.1276 21.4566 14.0978 21.4566C18.0679 21.4566 21.2857 18.2392 21.2857 14.2691C21.2857 10.299 18.0676 7.0801 14.0975 7.0801H14.0978ZM14.0978 9.6028C16.6748 9.6028 18.7641 11.6918 18.7641 14.2691C18.7641 16.846 16.6748 18.9353 14.0978 18.9353C11.5205 18.9353 9.43146 16.846 9.43146 14.2691C9.43146 11.6918 11.5205 9.6028 14.0978 9.6028V9.6028Z" fill="white"/>
</svg>
