<svg width="28" height="29" viewBox="0 0 28 29" fill="none" xmlns="http://www.w3.org/2000/svg">
<path d="M23.8572 24.1261H19.7089V17.6294C19.7089 16.0802 19.6812 14.0859 17.5513 14.0859C15.3907 14.0859 15.0601 15.7738 15.0601 17.5166V24.1257H10.9117V10.7657H14.8942V12.5915H14.9499C15.3485 11.9101 15.9244 11.3495 16.6163 10.9694C17.3083 10.5894 18.0903 10.4042 18.8792 10.4334C23.0838 10.4334 23.859 13.1991 23.859 16.7971L23.8572 24.1261ZM6.23099 8.93954C5.75486 8.93962 5.28938 8.79852 4.89345 8.53405C4.49751 8.26959 4.18891 7.89366 4.00663 7.45379C3.82434 7.01392 3.77657 6.52987 3.86937 6.06286C3.96218 5.59585 4.19139 5.16684 4.528 4.8301C4.86462 4.49335 5.29353 4.26399 5.76049 4.17101C6.22745 4.07804 6.71149 4.12563 7.15141 4.30776C7.59133 4.48989 7.96736 4.79839 8.23195 5.19425C8.49655 5.5901 8.63783 6.05553 8.63791 6.53167C8.63797 6.84782 8.57575 7.16089 8.45482 7.45299C8.33389 7.7451 8.15663 8.01052 7.93313 8.23411C7.70963 8.4577 7.44425 8.63508 7.1522 8.75612C6.86015 8.87715 6.54713 8.93948 6.23099 8.93954V8.93954ZM8.30517 24.1261H4.15248V10.7657H8.30517V24.1261ZM25.9254 0.272171H2.06793C1.52644 0.26606 1.00464 0.475187 0.617247 0.853597C0.229856 1.23201 0.0085618 1.74874 0.00195312 2.29025V26.2475C0.00833561 26.7893 0.2295 27.3063 0.616878 27.6851C1.00426 28.0639 1.52617 28.2735 2.06793 28.2677H25.9254C26.4682 28.2745 26.9916 28.0656 27.3805 27.6868C27.7694 27.308 27.9921 26.7903 27.9996 26.2475V2.28852C27.9918 1.74594 27.769 1.22862 27.3801 0.850216C26.9912 0.471815 26.468 0.263286 25.9254 0.270442" fill="white"/>
</svg>
