<?xml version="1.0" standalone="no"?>
<!DOCTYPE svg PUBLIC "-//W3C//DTD SVG 20010904//EN"
 "http://www.w3.org/TR/2001/REC-SVG-20010904/DTD/svg10.dtd">
<svg version="1.0" xmlns="http://www.w3.org/2000/svg"
 width="404.000000pt" height="404.000000pt" viewBox="0 0 404.000000 404.000000"
 preserveAspectRatio="xMidYMid meet">
<metadata>
Created by potrace 1.11, written by Peter Selinger 2001-2013
</metadata>
<g transform="translate(0.000000,404.000000) scale(0.100000,-0.100000)"
fill="#000000" stroke="none">
<path d="M1009 3496 c-2 -2 -29 -7 -59 -11 -77 -10 -203 -52 -274 -92 -213
-121 -352 -331 -415 -628 -21 -99 -22 -251 -1 -340 6 -27 13 -59 16 -69 9 -48
50 -158 87 -236 87 -184 222 -376 426 -605 63 -71 415 -421 516 -515 80 -74
256 -235 289 -265 12 -11 62 -56 111 -100 48 -44 100 -91 115 -105 129 -118
194 -175 201 -178 7 -3 48 30 98 79 9 8 66 60 126 114 61 54 117 106 126 114
9 9 56 52 104 96 384 349 695 654 845 831 68 79 74 87 127 155 106 137 151
209 227 364 88 179 130 342 129 510 0 61 -3 92 -19 180 -20 114 -51 205 -105
304 -99 184 -242 300 -444 360 -99 29 -161 36 -310 35 -158 0 -253 -22 -384
-88 -81 -40 -111 -58 -175 -106 -92 -69 -262 -266 -322 -375 l-21 -38 -38 63
c-21 34 -65 97 -98 139 -172 217 -362 344 -596 397 -31 7 -276 16 -282 10z"/>
</g>
</svg>
