<svg width="45" height="21" viewBox="0 0 45 21" fill="none" xmlns="http://www.w3.org/2000/svg">
<path d="M2.90009 9.27083C1.2493 6.01379 0.665829 2.64714 0.99745 0.0880127C1.66816 1.50458 4.22031 3.18647 7.91367 4.53932C9.78255 5.22388 11.9436 5.82418 14.301 6.26323C16.8514 6.73823 19.6315 7.02449 22.5199 7.02449C25.1337 7.02449 27.6383 6.79009 29.9603 6.39356C32.3001 5.99397 34.4544 5.42973 36.3476 4.77478C40.3636 3.38548 43.2051 1.588 44.152 0.0880127C44.3178 2.64714 43.674 6.01379 42.0138 9.27083C40.5819 12.0799 38.394 14.8074 35.3174 16.8651C32.8768 18.4974 29.8769 19.7081 26.2515 20.2036C25.0744 20.3645 23.8313 20.4499 22.5199 20.4499C19.4187 20.4499 16.6864 19.9719 14.301 19.1489C11.7987 18.2855 9.67809 17.0425 7.91367 15.5734C5.69727 13.7279 4.04292 11.5256 2.90009 9.27083Z" fill="white"/>
</svg>
