<svg width="214" height="214" viewBox="0 0 214 214" fill="none" xmlns="http://www.w3.org/2000/svg">
<path d="M107 188.81L94.0708 177.04C48.1499 135.4 17.8333 107.936 17.8333 74.2312C17.8333 46.7679 39.4116 25.1896 66.8749 25.1896C82.3899 25.1896 97.2808 32.4121 107 43.8254C116.719 32.4121 131.61 25.1896 147.125 25.1896C174.588 25.1896 196.167 46.7679 196.167 74.2312C196.167 107.936 165.85 135.4 119.929 177.13L107 188.81Z" fill="#FF0A0A"/>
<path fill-rule="evenodd" clip-rule="evenodd" d="M106.5 43.679C116.256 32.2392 131.202 25 146.775 25C174.341 25 196 46.6283 196 74.1553C196 107.911 165.62 135.42 119.591 177.1L119.478 177.203L106.5 189C149.217 92.6981 114.5 51.679 106.5 43.679Z" fill="#DB0C25"/>
<circle cx="73" cy="110" r="10" fill="black"/>
<circle cx="141" cy="110" r="10" fill="black"/>
<path d="M92 126C93.5748 128.333 99.2684 133 106.827 133C114.386 133 119.819 128.333 121 126" stroke="black" stroke-width="6"/>
</svg>
