<svg width="214" height="214" viewBox="0 0 214 214" fill="none" xmlns="http://www.w3.org/2000/svg">
<mask id="mask0" mask-type="alpha" maskUnits="userSpaceOnUse" x="0" y="0" width="214" height="214">
<path d="M107 188.81L94.0708 177.04C48.1499 135.4 17.8333 107.936 17.8333 74.2312C17.8333 46.7679 39.4116 25.1896 66.8749 25.1896C82.3899 25.1896 97.2808 32.4121 107 43.8254C116.719 32.4121 131.61 25.1896 147.125 25.1896C174.588 25.1896 196.167 46.7679 196.167 74.2312C196.167 107.936 165.85 135.4 119.929 177.13L107 188.81Z" fill="#DB0C25"/>
</mask>
<g mask="url(#mask0)">
<path d="M107 188.81L94.0708 177.04C48.1499 135.4 17.8333 107.936 17.8333 74.2312C17.8333 46.7679 39.4116 25.1896 66.8749 25.1896C82.3899 25.1896 97.2808 32.4121 107 43.8254C116.719 32.4121 131.61 25.1896 147.125 25.1896C174.588 25.1896 196.167 46.7679 196.167 74.2312C196.167 107.936 165.85 135.4 119.929 177.13L107 188.81Z" fill="#DB0C25"/>
<path fill-rule="evenodd" clip-rule="evenodd" d="M-67.0962 1.17074C-70.5607 4.63711 -62.7962 5.49636 -28.061 5.49636C17.9178 5.49636 18.4949 5.84444 -1.42387 21.6428L-10.5112 28.8522L-15.4029 25.2374C-21.4819 20.7414 -22.3906 21.1738 -47.2983 40.4074C-69.3295 57.4186 -72.5082 60.7604 -71.7204 66.0754C-69.9323 78.1472 -61.6126 75.5126 -34.5138 54.2948L-12.5687 37.115L-2.90973 50.0241C7.21456 63.5562 7.89793 65.0292 4.91708 66.8723C2.06813 68.633 2.76067 73.2847 5.8716 73.2847C7.40509 73.2847 9.63478 71.1467 10.8238 68.5341C13.2715 63.1623 12.852 62.2242 -0.0974228 44.1907L-7.85826 33.3812L2.18725 25.7962C16.2597 15.1717 19.0794 10.5603 15.1623 4.5803L12.1613 0H-26.8811C-48.3554 0 -66.4513 0.527664 -67.0962 1.17074ZM-98.9769 31.7964C-100.864 34.1965 -105.529 49.2694 -109.491 65.7786C-118.729 104.271 -121.204 101.49 -77.0097 102.276C-37.3132 102.983 -31.15 101.756 -27.7954 92.4798L-25.4924 86.1096H-6.62345C11.0235 86.1096 12.2456 86.3459 12.2456 89.7738C12.2456 91.8093 13.4676 93.438 14.9937 93.438C19.0848 93.438 18.4546 84.7868 14.1986 82.5095C12.2492 81.467 2.79363 80.6132 -6.814 80.6132C-19.9759 80.6132 -24.0927 80.0489 -23.5137 78.3231C-23.0905 77.0644 -21.8392 72.4932 -20.7307 68.1658C-19.2852 62.5247 -17.4476 59.8168 -14.2286 58.593C-8.52519 56.4256 -8.40975 53.1314 -14.0362 53.1314C-19.9851 53.1314 -23.5522 57.7557 -27.1102 70.0785L-30.1533 80.6132H-61.292C-90.1002 80.6132 -92.3592 80.3732 -91.4542 77.407C-85.7013 58.5472 -81.0935 32.5567 -83.0796 30.164C-86.5496 25.9831 -95.0946 26.8607 -98.9769 31.7964ZM-17.3926 31.921C-18.142 35.2225 -60.605 67.7884 -64.1593 67.7884C-70.5515 67.7884 -64.1593 60.4122 -44.7718 45.42C-25.2451 30.3197 -15.9911 25.7578 -17.3926 31.921ZM-86.6888 33.9418C-86.6888 34.4731 -89.2593 45.169 -92.3996 57.7117C-100.072 88.3466 -102.32 86.1096 -63.8442 86.1096C-29.8968 86.1096 -25.8515 87.2839 -35.7981 94.2497C-40.2666 97.3807 -103.577 98.5368 -108.247 95.5725C-110.664 94.039 -99.1344 40.3139 -95.3053 35.2683C-93.6252 33.0532 -86.6888 31.987 -86.6888 33.9418ZM46.999 41.208C32.7414 45.7425 15.9098 63.646 15.9098 74.2796C15.9098 79.208 19.1581 76.5203 23.7567 67.7884C38.9212 38.9875 81.866 37.0198 81.866 65.1245C81.866 75.4759 48.2558 160.713 41.2828 168.047C29.1743 180.779 9.59813 185.597 4.09445 177.199C0.234173 171.307 1.22905 168.789 24.7425 124.961C47.2079 83.0866 53.5341 75.1645 67.5535 71.3519C81.1533 67.651 80.8053 67.8269 78.6837 65.7053C72.9345 59.9561 49.3863 71.3463 41.1912 83.8395C28.2748 103.529 -3.14423 165.904 -3.14423 171.855C-3.14423 193.558 34.7733 189.998 49.8571 166.878C56.0313 157.416 87.3624 72.7772 87.3624 65.5624C87.3624 46.5633 67.6195 34.649 46.999 41.208ZM95.9624 61.6306C93.4395 64.1553 97.1074 65.9563 104.768 65.9563C115.524 65.9563 115.524 65.9617 109.038 90.4022C103.769 110.255 103.055 111.759 98.9103 111.759C91.3821 111.759 87.5969 115.112 84.9129 124.157C83.4985 128.926 75.0707 159.858 66.1868 192.893L50.0311 252.959L53.9098 256.836C64.0102 266.938 69.6 258.649 80.7008 217.106C96.7704 156.967 102.455 135.798 104.94 126.874L107.618 117.256H118.56C132.026 117.256 131.898 114.234 120.264 157.111C110.183 194.254 109.868 199.791 118.34 190.722C123.048 185.68 124.793 185.044 133.9 185.044C146.932 185.044 150.015 182.133 155.112 165.017C159.533 150.173 158.989 150.476 182.633 149.778C204.739 149.125 202.41 145.771 179.408 145.131C156.948 144.506 153.837 146.434 149.761 163.493C146.586 176.774 143.936 179.053 130.747 179.833C120.888 180.416 120.143 180.187 120.872 176.799C121.306 174.784 124.864 160.977 128.781 146.119C137.337 113.665 137.161 112.932 120.608 112.129C114.415 111.831 109.353 111.418 109.359 111.213C109.366 111.01 111.84 101.457 114.855 89.9863C121.273 65.5825 121.134 67.0098 117.462 63.3382C114.595 60.4728 98.4064 59.1866 95.9624 61.6306ZM8.68576 106.067C6.67959 109.815 5.41175 109.929 -34.9956 110.008C-88.499 110.11 -97.4049 111.946 -97.6229 122.926C-97.7713 130.32 -92.1559 131.913 -65.9328 131.913C-46.6021 131.913 -40.8859 132.457 -40.8859 134.294C-40.8859 138.275 -44.9789 141.071 -50.8709 141.113C-80.0603 141.324 -105.743 182.206 -88.3689 200.806C-65.1285 225.682 -17.1893 199.419 -21.1833 163.997C-22.0315 156.465 -21.7641 155.73 -18.1676 155.73C-9.94507 155.73 -1.6364 147.533 1.33163 136.493C2.41624 132.462 3.72256 127.721 4.23372 125.958C4.8255 123.919 4.16591 122.752 2.42173 122.752C0.679388 122.752 -1.37439 126.38 -3.21384 132.708C-6.76448 144.924 -12.7665 150.234 -23.0246 150.234C-29.8052 150.234 -30.2174 150.525 -28.8488 154.356C-20.2874 178.353 -37.5569 203.195 -63.9724 204.878C-99.8819 207.165 -94.501 157.663 -57.8513 148.552C-41.6481 144.525 -40.0889 143.783 -37.2784 138.774C-31.7546 128.932 -35.1715 127.4 -63.9468 126.819C-89.9592 126.295 -94.5944 125.115 -90.4172 120.081C-88.422 117.677 -81.3519 117.252 -42.9525 117.228C3.54301 117.201 8.57765 116.506 12.9399 109.52C14.3616 107.245 14.3305 105.783 12.8318 104.284C11.2819 102.734 10.2284 103.187 8.68576 106.067ZM96.2958 136.951C93.3773 147.784 85.5284 177.257 78.854 202.449C66.9544 247.358 62.5757 258.092 58.0174 253.534C55.9324 251.449 89.1817 124.436 93.0255 119.802C100.482 110.819 101.664 117.021 96.2958 136.951Z" fill="#FF0A0A"/>
</g>
</svg>
