<svg width="214" height="214" viewBox="0 0 214 214" fill="none" xmlns="http://www.w3.org/2000/svg">
<path d="M107 188.81L94.0708 177.04C48.1499 135.4 17.8333 107.936 17.8333 74.2312C17.8333 46.7679 39.4116 25.1896 66.8749 25.1896C82.3899 25.1896 97.2808 32.4121 107 43.8254C116.719 32.4121 131.61 25.1896 147.125 25.1896C174.588 25.1896 196.167 46.7679 196.167 74.2312C196.167 107.936 165.85 135.4 119.929 177.13L107 188.81Z" fill="#FF0A0A"/>
<path d="M58.8337 114C54.8277 105.842 53.4118 97.4098 54.2166 91C55.8442 94.548 62.0374 98.7606 71 102.149C75.5352 103.864 80.7794 105.367 86.5 106.467C92.6889 107.657 99.4354 108.374 106.445 108.374C112.787 108.374 118.865 107.787 124.5 106.793C130.178 105.793 135.406 104.379 140 102.739C149.745 99.2591 156.641 94.757 158.939 91C159.341 97.4098 157.779 105.842 153.75 114C150.275 121.036 144.966 127.867 137.5 133.021C131.577 137.11 124.298 140.142 115.5 141.383C112.643 141.786 109.627 142 106.445 142C98.9191 142 92.2887 140.803 86.5 138.741C80.4277 136.579 75.2817 133.466 71 129.786C65.6215 125.164 61.6069 119.648 58.8337 114Z" fill="white"/>
<path d="M106.445 108.374C99.4354 108.374 92.6889 107.657 86.5 106.467M106.445 108.374L86.5 138.741M106.445 108.374L115.5 141.383M106.445 108.374C112.787 108.374 118.865 107.787 124.5 106.793M58.8337 114C54.8277 105.842 53.4118 97.4098 54.2166 91C55.8442 94.548 62.0374 98.7606 71 102.149M58.8337 114L71 102.149M58.8337 114C61.6069 119.648 65.6215 125.164 71 129.786M71 102.149V129.786M71 102.149C75.5352 103.864 80.7794 105.367 86.5 106.467M71 129.786L86.5 106.467M71 129.786C75.2817 133.466 80.4277 136.579 86.5 138.741M86.5 106.467V138.741M86.5 138.741C92.2887 140.803 98.9191 142 106.445 142C109.627 142 112.643 141.786 115.5 141.383M115.5 141.383L124.5 106.793M115.5 141.383C124.298 140.142 131.577 137.11 137.5 133.021M124.5 106.793L137.5 133.021M124.5 106.793C130.178 105.793 135.406 104.379 140 102.739M137.5 133.021L140 102.739M137.5 133.021C144.966 127.867 150.275 121.036 153.75 114M140 102.739C149.745 99.2591 156.641 94.757 158.939 91C159.341 97.4098 157.779 105.842 153.75 114M140 102.739L153.75 114" stroke="black" stroke-width="4"/>
</svg>
